 <svg  version="1.0" xmlns="http://www.w3.org/2000/svg"  width="600.000000pt" height="260.000000pt" viewBox="0 0 300.000000 129.000000"  preserveAspectRatio="xMidYMid meet">  <g transform="translate(0.000000,129.000000) scale(0.050000,-0.050000)" fill="#ea2a2a" stroke="none"> <path d="M2413 2550 c-7 -16 -24 -30 -40 -30 -232 0 -731 -317 -936 -594 -88 -119 -277 -476 -277 -523 0 -94 -93 -402 -142 -470 -31 -44 -50 -90 -43 -108 8 -21 4 -27 -12 -17 -14 9 -23 0 -23 -26 0 -22 9 -45 20 -52 11 -7 15 -33 8 -59 -6 -26 -2 -52 10 -59 11 -8 16 -25 10 -39 -12 -33 107 -198 133 -182 11 6 25 -2 31 -19 8 -21 22 -26 45 -15 18 9 56 10 83 2 46 -14 44 -15 -18 -17 -38 -1 -63 -7 -57 -14 22 -22 262 -10 276 14 8 13 55 24 105 26 50 1 87 -4 82 -11 -12 -20 72 -36 182 -36 124 0 194 17 177 44 -8 13 -3 15 11 6 13 -8 71 -15 128 -15 79 -1 92 -5 54 -17 -32 -9 20 -16 144 -17 176 -2 197 2 216 39 12 22 31 35 41 28 11 -6 16 -18 11 -25 -4 -8 22 -14 60 -14 37 0 68 5 68 11 0 5 38 6 85 0 l85 -9 -80 -13 c-49 -8 4 -13 140 -13 149 0 191 4 130 13 -64 10 -29 14 125 15 137 2 215 -5 215 -18 0 -12 15 -9 34 7 18 15 28 17 20 5 -32 -54 480 -66 786 -19 978 150 1204 717 407 1022 -217 83 -129 101 104 22 1272 -433 410 -1272 -1146 -1116 -80 8 -145 7 -145 -1 0 -9 29 -17 65 -18 l65 -3 -60 -13 c-144 -31 125 -101 400 -104 141 -1 202 -8 170 -18 -46 -15 -44 -16 20 -18 199 -5 660 72 616 103 -17 11 -10 13 20 5 129 -37 664 289 613 372 -9 14 -7 19 6 11 77 -47 132 311 69 453 -38 86 -200 284 -218 267 -5 -5 -29 11 -55 34 -55 52 -218 113 -297 113 -33 0 -51 8 -44 20 7 12 -13 20 -49 20 -33 0 -61 9 -61 20 0 74 -290 -2 -318 -83 -40 -113 6 -211 56 -122 22 40 58 25 250 -102 65 -43 110 -66 101 -51 -9 16 21 -12 67 -61 114 -121 118 -228 14 -344 -38 -42 -70 -72 -70 -65 0 7 -19 -9 -42 -35 -22 -26 -35 -36 -28 -22 13 26 -46 10 -134 -37 -78 -42 -94 78 -18 136 18 14 25 25 16 25 -9 1 -3 15 15 32 105 106 -59 326 -224 299 -52 -8 -108 -14 -125 -13 -497 26 -511 25 -588 -27 -91 -62 -106 -62 -214 -1 -75 42 -112 48 -258 46 -109 -1 -188 8 -220 25 l-50 27 69 28 c37 15 85 29 105 31 25 2 33 13 24 33 -6 17 -21 55 -31 84 l-20 53 -185 -88 c-103 -48 -214 -93 -248 -100 l-62 -13 31 -76 c17 -42 27 -93 22 -113 -5 -23 -21 0 -45 66 l-37 102 -121 -38 c-66 -21 -189 -47 -271 -59 -83 -11 -157 -31 -166 -44 -9 -14 -15 -15 -15 -2 0 15 -46 16 -145 5 -80 -9 -183 -12 -230 -5 -80 11 -85 9 -85 -39 0 -44 9 -50 84 -56 l84 -6 -5 -106 c-7 -119 18 -164 89 -164 66 0 95 66 80 183 l-13 97 92 0 93 0 -12 -145 c-18 -208 -131 -289 -329 -236 -117 32 -139 69 -163 281 -25 223 4 192 -195 209 l-165 14 0 -62 c0 -60 1 -61 107 -61 79 0 122 -11 160 -41 88 -69 68 -86 -87 -72 -163 15 -193 -16 -35 -37 143 -20 179 -41 171 -104 -19 -163 -399 -186 -452 -28 -9 27 152 24 216 -4 29 -13 98 15 79 33 -5 4 -57 14 -116 21 -192 23 -235 87 -127 189 46 44 56 72 60 163 42 1073 1385 1703 2297 1078 203 -139 527 -544 527 -658 0 -50 -42 -11 -90 84 -29 57 -80 147 -114 200 l-62 95 -92 -82 c-51 -46 -100 -91 -111 -100 -11 -9 -5 -31 14 -52 18 -20 51 -76 73 -125 l41 -90 1 96 c0 160 144 152 206 -11 27 -72 106 -86 160 -28 60 65 135 69 172 8 l28 -45 -48 40 -48 40 37 -44 c22 -26 49 -38 68 -31 23 9 29 3 20 -20 -7 -18 4 -46 26 -66 22 -19 40 -27 40 -17 1 10 9 0 18 -22 29 -70 48 57 21 139 -25 77 -137 126 -232 102 -35 -9 -55 1 -80 39 -18 27 -42 44 -53 37 -12 -8 -15 -4 -8 9 8 12 -20 86 -62 165 -160 303 -585 628 -945 721 -94 25 -180 56 -192 71 -34 41 -400 38 -415 -3z m2109 -1760 c-92 -87 -102 -104 -102 -183 l0 -87 -80 0 -80 0 0 84 c0 75 -12 97 -104 190 l-105 106 89 0 c68 0 100 -12 144 -54 l56 -53 55 52 c53 50 176 81 212 53 9 -7 -29 -56 -85 -108z m-1933 82 c119 -50 149 -185 63 -286 -47 -54 -56 -56 -270 -63 l-222 -7 0 192 0 192 181 0 c110 0 207 -11 248 -28z m611 -22 c0 -49 -4 -50 -140 -50 -111 0 -140 -6 -140 -30 0 -23 27 -30 120 -30 93 0 120 -7 120 -30 0 -23 -27 -30 -121 -30 -105 0 -121 -5 -115 -35 6 -30 26 -34 151 -28 145 7 145 7 145 -45 l0 -52 -230 0 -230 0 0 190 0 190 220 0 220 0 0 -50z m358 -84 c89 -153 81 -153 175 4 l77 129 95 1 95 0 0 -158 c0 -87 5 -173 12 -190 10 -26 -4 -32 -82 -32 l-95 0 14 110 c18 139 -5 139 -80 0 -86 -160 -158 -158 -251 5 -70 123 -89 114 -74 -37 l7 -78 -85 0 -86 0 0 191 0 191 103 -6 102 -6 73 -124z"/> <path d="M2320 710 l0 -90 86 0 c95 0 134 26 134 90 0 64 -39 90 -134 90 l-86 0 0 -90z"/> <path d="M2810 2299 c-26 -41 238 -134 290 -102 49 31 50 31 15 -10 -35 -40 -33 -43 76 -124 132 -99 127 -98 197 -25 l55 57 -69 42 c-130 81 -542 199 -564 162z"/> <path d="M2495 2262 c78 -50 104 -52 156 -13 38 29 37 30 -11 31 -27 0 -86 6 -130 12 l-80 12 65 -42z"/> <path d="M2309 2205 c21 -84 37 -90 143 -48 l98 40 -74 31 c-123 52 -183 44 -167 -23z"/> <path d="M2676 2222 l-54 -34 92 -83 93 -84 96 55 c119 67 119 70 2 119 -145 61 -171 64 -229 27z"/> <path d="M2147 2169 c-88 -94 -89 -132 -2 -116 144 28 154 37 130 116 -27 89 -44 89 -128 0z"/> <path d="M2005 2121 c-104 -75 -120 -101 -61 -101 62 1 84 18 124 95 40 79 38 80 -63 6z"/> <path d="M2500 2130 c-27 -16 -65 -29 -84 -29 -55 -1 -61 -36 -26 -141 38 -113 32 -110 117 -72 35 16 107 48 162 71 l98 42 -77 79 c-84 86 -113 94 -190 50z"/> <path d="M2943 2060 c-48 -32 -92 -62 -98 -68 -11 -12 134 -232 153 -232 21 0 261 170 262 184 0 15 -207 177 -222 174 -4 0 -47 -27 -95 -58z"/> <path d="M2161 2022 c-115 -35 -135 -62 -139 -189 l-2 -57 105 14 c176 22 260 49 248 80 -6 15 -21 64 -33 109 -24 90 -26 91 -179 43z"/> <path d="M3401 2002 l-69 -58 54 -67 c30 -37 75 -96 99 -132 56 -80 47 -82 163 21 l98 85 -121 105 c-140 121 -134 120 -224 46z"/> <path d="M1659 1887 c-114 -107 -121 -127 -42 -127 47 0 68 18 120 101 97 156 71 165 -78 26z"/> <path d="M1837 1945 c-17 -19 -49 -69 -73 -110 l-43 -75 118 0 c135 0 131 -3 150 125 l13 95 -68 0 c-40 0 -80 -14 -97 -35z"/> <path d="M2630 1899 c-66 -31 -137 -57 -157 -58 -25 -1 -33 -11 -25 -32 6 -17 26 -82 44 -145 18 -63 36 -117 39 -121 3 -3 101 37 217 89 l210 96 -42 71 c-105 176 -118 181 -286 100z m180 -94 c-4 -19 -8 -41 -8 -48 -2 -13 -113 -57 -145 -57 -59 0 -8 79 68 106 47 16 86 30 88 31 2 2 0 -13 -3 -32z"/> <path d="M3271 1901 c-44 -70 -487 -318 -643 -359 l-83 -22 51 -170 c46 -153 55 -169 93 -158 66 21 451 204 451 216 0 5 -31 62 -70 126 -70 116 -90 181 -48 154 13 -7 49 -71 81 -141 69 -152 46 -149 227 -27 188 127 186 120 94 245 -96 129 -136 165 -153 136z m49 -201 c0 -39 -103 -120 -154 -120 -43 0 -54 84 -13 108 98 58 167 63 167 12z m-320 -176 c0 -19 -18 -51 -40 -69 -22 -19 -40 -31 -40 -26 0 5 -41 -9 -90 -31 -107 -47 -174 -18 -122 53 58 78 292 138 292 73z"/> <path d="M2240 1779 c-71 -19 -155 -36 -185 -37 -53 -2 -55 -5 -55 -117 1 -164 15 -206 67 -196 220 44 413 100 413 119 0 42 -83 272 -97 269 -7 -1 -71 -18 -143 -38z m11 -140 c6 -11 0 -20 -15 -20 -14 -1 -46 -6 -71 -10 -28 -6 -45 1 -45 18 0 31 113 41 131 12z"/> <path d="M4381 1780 c-1 -39 -6 -44 -20 -20 -15 23 -26 14 -50 -45 -17 -41 -40 -75 -51 -75 -44 0 -103 -80 -69 -93 123 -47 263 107 212 233 l-20 50 -2 -50z"/> <path d="M4440 1748 c-1 -134 89 -216 220 -201 63 7 76 40 20 53 -23 6 -40 15 -36 21 3 5 -32 45 -79 87 -48 43 -85 65 -85 49 -1 -21 -5 -20 -20 3 -16 25 -19 22 -20 -12z"/> <path d="M1486 1674 c-44 -67 -126 -225 -126 -243 0 -6 48 -11 106 -11 l106 0 43 145 c23 79 41 146 39 147 -54 36 -130 18 -168 -38z"/> <path d="M1662 1582 c-23 -76 -42 -146 -42 -155 0 -13 344 -13 352 0 1 2 -3 68 -8 148 l-9 145 -125 0 -126 0 -42 -138z"/> <path d="M3513 1604 c-7 -10 -84 -67 -171 -125 l-158 -106 32 -66 c31 -66 32 -67 73 -29 109 99 291 178 291 127 0 -9 18 -26 39 -40 36 -22 35 -14 -13 100 -60 142 -76 167 -93 139z"/> <path d="M2410 1465 c-44 -15 -151 -37 -237 -50 l-157 -22 13 -61 c7 -34 18 -114 25 -177 l12 -116 72 12 c82 14 468 111 479 121 9 7 -97 293 -115 309 -6 7 -48 0 -92 -16z m30 -183 c0 -40 -43 -53 -227 -72 -147 -15 -118 35 42 73 181 43 185 43 185 -1z"/> <path d="M1335 1387 c-18 -31 -80 -309 -71 -317 9 -10 282 -51 288 -44 1 2 7 83 13 179 l11 175 -73 0 c-40 0 -92 6 -116 12 -23 6 -47 4 -52 -5z"/> <path d="M1597 1255 c-4 -69 -4 -151 0 -182 l8 -57 213 14 c254 17 227 -10 188 186 l-32 164 -185 0 -185 0 -7 -125z m339 -40 c-9 -65 -236 -81 -236 -17 0 42 35 55 166 59 69 3 76 -2 70 -42z"/> </g> </svg> 